<svg id="Layer_1" data-name="Layer 1" xmlns="http://www.w3.org/2000/svg" viewBox="0 0 40.79 44.29"><title>advanced</title><path d="M24.94,15.39l-6.08,6.75-5-13.29c-2.38,2.34-4.6,4.52-6.8,6.71a43.8,43.8,0,0,1-3.53,3.49A16.63,16.63,0,0,1,.24,20.64L0,20.09,20.54,0,40.79,20.23c-1.67.79-4.42-1.06-6.34,1.3C33,23.39,31.1,25,29.12,27Z"/><path d="M20.15,44.29.41,24.75c.06-.1.16-.33.21-.32,3.16.57,5.21-1.1,7.07-3.34,1.19-1.44,2.57-2.74,4.13-4.39L17.42,30,23,23.28,27.27,35.4c3.32-3.34,6.38-6.54,9.59-9.59a15.31,15.31,0,0,1,3.4-1.88l.33.59Z"/></svg>