<?xml version="1.0" encoding="UTF-8" standalone="no"?>
<svg width="46px" height="63px" viewBox="0 0 46 63" version="1.1" xmlns="http://www.w3.org/2000/svg" xmlns:xlink="http://www.w3.org/1999/xlink" xmlns:sketch="http://www.bohemiancoding.com/sketch/ns">
    <!-- Generator: Sketch 3.0.1 (7597) - http://www.bohemiancoding.com/sketch -->
    <title>arrowhead_gray</title>
    <description>Created with Sketch.</description>
    <defs></defs>
    <g id="Page-1" stroke="none" stroke-width="1" fill="none" fill-rule="evenodd" sketch:type="MSPage">
        <g id="Imported-Layers-2" sketch:type="MSLayerGroup" fill="#3B4141">
            <path d="M24.367514,0 L24.720293,0 C26.9221887,2.37906888 27.9547609,5.25167871 29.6651443,8.07392722 C30.1962947,8.95222869 30.9613098,9.66735947 31.4290392,10.58595 C32.0989229,11.8953444 32.2455838,13.4525165 32.9313227,14.8082433 C33.5040931,15.932308 34.4930633,16.915361 35.3155536,17.9447464 C37.8068074,21.0731918 39.6083585,24.4816461 41.5843171,28.2647886 C42.2601465,29.5641108 43.2748815,30.6700454 43.8813442,32.0358445 C44.6305041,33.723956 44.2975442,35.7807124 44.6760879,37.7790497 C44.9396812,39.1871523 45.7978458,40.3071881 46,41.9086781 L46,43.0730319 C45.7146058,44.029897 45.2607497,45.4863465 44.2341232,45.8570058 C43.1222749,46.2558675 41.8538561,46.0665089 40.7003878,46.3928503 C39.100991,46.8501311 37.8246445,48.0930485 36.1102973,48.5503293 C35.1470918,48.8061649 34.2790177,48.8404106 33.2860836,49.1768242 C33.8350711,51.835902 35.3036622,53.975251 35.0519604,57.5206881 C34.873589,60.0246531 33.4604912,62.2123489 30.6402413,62.0975251 C29.1359759,62.0411204 27.6574752,61.1023854 25.9550194,61.203108 C23.9493322,61.3239752 22.7046963,62.8428727 20.6573891,63 L17.218785,63 C14.7493322,62.4520688 12.1867299,63.2679222 10.5932788,61.652331 C9.30702283,60.3469655 8.72434296,53.8100659 10.3296855,52.3193707 C10.7597587,51.9184946 11.4296424,51.9285669 11.9191728,51.688847 C12.1054718,50.9213404 12.4384317,50.0108077 12.0955623,49.0861738 C11.9707023,48.7477457 10.9143473,47.774765 10.4188712,47.6478544 C9.48143042,47.4202213 8.50633348,47.7667072 7.68186127,47.4746115 C6.53037484,47.0596342 6.04480827,46.0060753 5.03205515,45.2264821 C3.5971564,44.1225619 1.97199483,43.5988041 0.174407583,43.0730319 C0.0931495045,42.9159046 0.144679018,42.6258234 0,42.5331585 L0,41.3667903 C0.180353296,40.4461853 0.828436019,39.3221206 1.05833692,38.2323016 C1.41904352,36.5159877 1.19508832,34.8057172 1.76785868,33.4701349 C2.17216717,32.5193132 3.06600603,31.7497922 3.52977165,30.7788259 C3.99948298,29.8018162 4.12434296,28.635448 4.59009048,27.821609 C5.20844464,26.7378333 6.45704438,26.0146448 6.97630332,24.7676984 C7.39646704,23.7544286 7.39448514,22.5457569 7.85626885,21.536516 C8.54398966,20.0558931 10.6408445,19.0889557 11.1224472,17.4109164 C11.3701853,16.5447017 11.1125377,15.438767 11.47919,14.6249281 C11.9508832,13.579427 13.5859543,13.5069067 13.9506247,12.5621283 C14.3727704,11.4743237 13.8634209,10.0823368 14.6581646,9.42159621 C15.2606635,8.91395408 16.326928,9.14964507 17.0384317,8.79308691 C18.0650582,8.27940142 18.9826799,6.26696297 19.6882378,5.29398222 C20.6098234,4.02286244 21.2479966,2.40928567 22.1636364,1.52494085 C22.8236105,0.88233037 23.6203361,0.701029609 24.367514,0 M21.7892613,4.50085969 C21.3786767,5.20021869 20.8245867,5.81942193 20.3681601,6.4626719 C19.3536573,7.90146778 18.654069,9.66289059 17.3465762,10.2139614 C16.680871,10.4945066 16.0450628,10.3422106 15.2179141,10.7490011 C14.9647867,11.7228936 15.2577767,12.5945875 14.9488417,13.4282074 C14.5422433,14.532353 12.8600422,14.6225282 12.4634095,15.4801948 C12.0408661,16.4039899 12.3378423,17.5041277 12.0209348,18.3377476 C11.4648517,19.7945786 9.83048573,20.4839181 8.99935083,21.9086867 C8.38945327,22.9587272 8.43130899,24.4977177 7.84532898,25.7461437 C7.29921157,26.9164178 5.9458768,27.6638702 5.3598968,28.7820431 C4.96127095,29.5495345 4.85563509,30.5655087 4.38525659,31.5474168 C3.81920788,32.7216986 2.71501427,33.7396768 2.43198991,34.7616627 C2.063261,36.09826 2.33631971,37.5470753 1.98552896,38.9598206 C1.70449773,40.0920207 0.907246031,40.973734 1.00889562,42.2642418 C2.7170074,42.9495735 4.25968945,43.4405275 5.62697612,44.4945758 C6.72718347,45.340219 7.13976123,46.3000842 8.20409225,46.5445593 C9.02526151,46.738937 9.88230709,46.5104931 10.6895244,46.7269137 C11.1439579,46.8451434 11.5704876,47.2459222 12.0209348,47.5304752 C12.5869835,47.8811566 12.9995613,47.9813513 13.1729635,48.5103793 C13.5337199,49.5904782 13.3005238,52.0332249 12.5531003,52.7065333 C12.1544744,53.0672342 11.4449204,52.9029149 10.9546106,53.3317482 C9.79660253,54.3557381 10.544026,60.0367775 11.2196968,60.8283156 C11.9551615,61.6879861 14.1137205,61.7160406 15.5726911,61.8122276 C17.3864388,61.9304573 19.1164749,62.1168194 20.8106348,61.9003989 C22.4609458,61.68999 24.0813599,60.4415641 25.4307084,60.2031007 C27.6311231,59.8143453 29.4747677,61.710029 32.0000625,60.9184908 C34.7804778,60.0508048 34.0649444,54.6943961 33.1540843,52.3478363 C32.7295478,51.2657335 31.9721587,50.1395451 32.1754579,49.1335903 C32.454496,47.7769541 34.8960793,48.0114097 36.3510637,47.5304752 C37.9176633,47.0074588 39.3208263,45.7430017 40.7877694,45.3843047 C41.7145745,45.1618725 43.3310023,45.2239932 43.8950579,44.943448 C46.2449573,43.7631545 44.1880479,40.3465152 43.7196625,38.2424266 C43.4206931,36.9018215 43.6399374,34.7296004 43.2732016,33.5152406 C42.7968437,31.9121255 41.4215845,30.5093997 40.612374,28.9603896 C38.854434,25.5838283 37.3994496,22.716256 35.2847395,19.8566993 C34.2542917,18.4579813 32.9169019,17.3057422 32.0897533,15.8368879 C31.3483092,14.5263413 31.2107833,12.943265 30.5789613,11.6407339 C30.188308,10.8391764 29.4827402,10.1939225 28.9804717,9.41039994 C27.4258308,6.99169991 26.4472044,4.10208479 24.5397797,2.08817134 C24.4500888,2.08817134 24.4361369,2.01803505 24.3623912,2 C22.9113931,2.35869702 22.5028016,3.27848436 21.7892613,4.50085969" id="Fill-1" sketch:type="MSShapeGroup"></path>
            <path d="M24.1562614,4 C25.3702614,4.18665811 25.8642614,5.74727389 25.4022614,7 C23.9222614,6.96728672 23.8262614,5.30083387 24.1562614,4" id="Fill-2" sketch:type="MSShapeGroup"></path>
            <path d="M29.8236369,13 C28.426567,12.3172309 26.7478655,12.147965 26.1668618,11.0505896 C25.7499584,10.2556105 26.2156484,9.03461392 26.4640163,8 L26.6635978,8 C27.3377395,8.26055534 27.8566512,8.96044123 28.4376548,9.52529479 C29.388993,10.4381894 30.4201636,11.2978319 29.8236369,13" id="Fill-3" sketch:type="MSShapeGroup"></path>
            <path d="M32.4119721,32.3848393 C32.7220208,33.6001206 35.0787961,32.7818715 36.201456,33.1950268 C36.3473613,34.9121407 35.7941371,36.3067918 36.201456,37.5905964 C36.6675423,39.0578017 38.7162953,38.9953246 39,40.5532225 C36.0839212,41.3734869 33.3481975,41.8148578 31.1454333,44.0579889 C29.6762484,45.5453481 28.8109491,47.2241695 25.9090556,47.7340636 C25.1552117,47.8690949 23.9960754,48.1331112 23.2017023,47.9194797 C21.5866121,47.4760935 21.1266053,43.8504035 21.8500522,41.8995042 C21.2826428,42.1796437 19.9836807,42.6048914 19.7709022,43.3405094 C19.3696627,44.7230682 21.0941819,46.0673346 20.5855399,47.5587245 C18.2571351,48.5865744 16.9156173,47.2866466 15.3491621,46.2104274 C14.5243921,45.6501485 13.6834104,45.1100234 12.9113284,44.5981139 C11.4765933,43.6448336 8.83813978,42.3751367 8.30518027,41.0933475 C7.09132954,38.1609523 9.86150308,34.9101253 10.291113,32.3848393 C10.4430977,31.5041131 10.3073247,30.5427711 10.5606325,29.7829684 C10.7349082,29.2650127 11.3367674,28.8699959 11.4644345,28.4346713 C11.6488426,27.8199768 11.4178259,27.1024973 11.4644345,26.4595873 C11.5232019,25.6493997 11.8089331,24.7928582 12.2770458,24.2144407 C13.251774,23.017298 14.931711,22.960867 15.8010632,21.6105545 C16.2408054,20.9253212 16.3421285,20.0647489 16.611648,19.3674233 C16.8933262,18.6318053 17.2297189,18.0896649 17.6917522,17.483032 C18.5732632,16.3161201 19.7810345,15.5422096 20.6726778,14.4276979 C21.5460829,13.3414017 21.9635341,11.6242879 23.0233737,11.1063322 C23.9697314,10.6407766 23.7630323,11.8056731 24.1926423,12.6319838 C24.897851,13.9742348 26.4055387,14.5526522 26.9952392,15.5946098 C27.4836165,16.4672745 27.5606221,17.7027097 27.8949883,18.2912041 C28.3428364,19.0711607 29.7350158,19.7362401 30.2436578,20.5303044 C31.0056075,21.7334934 30.6246326,24.1398712 31.323762,25.2926754 C31.8911713,26.2137095 32.898323,26.725619 33.5832671,27.6244838 C34.9592348,29.4343056 35.7738725,32.306239 32.4119721,32.3848393 L32.4119721,32.3848393 Z M21.9159528,20 C20.5707381,21.948306 20.8252382,25.8387396 21.9159528,27.9806405 C22.5661042,29.2596025 23.8792391,29.6715065 23.8214954,31.102873 C23.7466424,32.991453 21.4411712,33.6299042 21.6272342,35.6894244 C21.7234738,36.7027083 22.9831422,37.8436824 23.7252558,38.4409433 C24.6919284,39.2173823 25.85108,39.7796313 26.9631811,40 C27.3203367,37.8807538 24.9806469,37.6686232 24.2000375,36.1466378 C23.1200162,34.0438678 25.0148654,33.0614767 25.2501176,31.4694676 C25.5366975,29.4820307 24.0567475,28.2792709 23.4386759,26.6934404 C22.9168438,25.3712285 22.4228143,23.7689218 22.3907344,22.2036865 C22.3736252,21.4787355 22.7756925,20.867058 22.1062932,20 L21.9159528,20 L21.9159528,20 Z M15.6258175,36 C16.611196,34.7109596 16.8245015,32.7492891 18,31.6168611 C15.4704755,29.1652749 14.1303608,34.7270224 15.6258175,36 L15.6258175,36 Z M31.7086963,38 C32.1572431,37.6523058 32.3413627,37.7178398 32.9309374,37.9162621 C33.0582541,37.029733 33.0151623,35.7773058 32.7546526,35 C31.4011773,35.0855583 30.1808949,37.4320388 31.7086963,38 L31.7086963,38 Z M14.3798316,36.0994251 C14.2706313,36.0909661 14.2631003,35.9767696 14.1275413,36.0042614 C13.5758917,37.5226517 11.7439631,38.0872899 12.0301431,40.2443346 C12.4594131,40.8660711 13.5062294,41.170595 14.4626732,40.9020218 C15.3889927,39.9736467 14.9540744,37.0679805 14.3798316,36.0994251 L14.3798316,36.0994251 Z" id="Fill-4" sketch:type="MSShapeGroup"></path>
            <path d="M29,16 C29.5650949,16.0407561 29.9316862,16.8009451 30.3559076,17.3414058 C30.7385073,17.8304784 31.1755354,18.3833432 30.9274059,19 C29.4562381,18.9167159 29.3041587,17.3715298 29,16" id="Fill-5" sketch:type="MSShapeGroup"></path>
            <path d="M37.9864337,27.9977277 C36.703295,28.0673074 35.9405624,26.5246265 34.9772152,25.339784 C33.9979778,24.1390375 32.3136099,23.2762495 33.2988062,21 C34.1350313,21.3797062 35.1400904,22.4750892 36.1292593,23.5684841 C37.22966,24.7970625 38.121501,25.8347937 37.9864337,27.9977277" id="Fill-6" sketch:type="MSShapeGroup"></path>
            <path d="M10.0403112,24 C11.5163794,24.6836002 11.2304289,28.7967879 9.58923446,28.9898953 C8.19371573,29.1559677 7.110326,27.2229626 9.0535808,27.0124755 C9.45834165,26.0836289 9.83289646,25.121954 10.0403112,24" id="Fill-7" sketch:type="MSShapeGroup"></path>
            <path d="M39,30.1958112 C38.6631205,30.830101 37.898162,30.943367 37.0903957,31 C36.6790677,30.3725062 35.8824686,29.819768 36.0146147,28.7822511 C36.2491275,26.8929737 38.9069394,28.8502107 39,30.1958112" id="Fill-8" sketch:type="MSShapeGroup"></path>
            <path d="M41.832462,39 C40.8058025,38.4273276 39.2107778,38.0136244 39.1587444,36.8682795 C39.1387315,36.4775598 39.5950247,36.1098237 39.6010285,35.7574099 C39.625044,34.5699285 38.2481594,33.9129832 38,32.6852807 C38.2981916,31.9727919 39.4629398,31.9000108 40.0493165,32.0896248 C41.972552,32.7178407 42.2487294,36.7112255 41.832462,39" id="Fill-9" sketch:type="MSShapeGroup"></path>
            <path d="M21.1499912,51 C20.7289565,52.1143338 19.333527,52.4162169 18.2929697,53.0746869 C17.707531,53.4474822 16.9256093,53.7838084 17.0418951,54.5192687 C17.2283533,55.7004625 19.2332807,55.2283902 20.07936,54.792787 C21.2843213,54.1687601 22.8080661,52.3068096 24.3658947,51.9947962 C25.9136986,51.6807566 29.6990014,52.385826 30.3526077,53.1658597 C31.1545787,54.1282389 31.0483175,56.1097269 30.8859184,57.7690712 C30.4488442,57.9899119 30.1962234,58.3971503 29.4564052,58.3120557 C29.4564052,57.8703743 30.0518686,57.825801 30.1721643,57.2281128 C30.3205289,56.5027829 29.8794449,55.582951 29.8152872,54.8819337 C29.6087797,54.6712233 29.267942,54.5922069 29.0113113,54.430122 C28.2414192,54.9406895 28.1431778,56.3022028 26.9562608,56.4156622 C26.0380041,56.5048089 25.2600923,55.8584953 24.1874561,56.0550233 C22.8742287,56.2961246 22.2747555,57.629273 20.7951191,57.6799245 C19.7645864,57.7143676 18.4393294,57.1531486 17.5792156,56.7803533 C16.7652151,56.4217404 15.7005987,55.386423 14.808406,55.4249182 C14.0665829,55.4573352 12.9478334,56.6182684 12.9337989,57.0457673 C12.8896905,58.4741406 16.1416827,58.4336194 17.5792156,58.5815219 C19.6904041,58.8043886 21.653228,58.6929553 22.4912876,59.936957 C20.3480203,60.2509965 18.2187874,59.2987476 15.8810421,59.1224803 C13.844036,58.9745778 11.4341133,59.3493992 11.0591919,57.4104584 C10.9248617,56.7215975 11.0090687,55.8341826 11.4160689,55.1513999 C12.242099,53.769626 13.8680951,53.3218664 15.9692589,52.7181001 C16.7592003,52.4891552 17.5150579,52.0292392 18.2929697,51.8124506 C19.3736256,51.5105675 20.1996556,51.3565868 20.9715527,51 L21.1499912,51" id="Fill-10" sketch:type="MSShapeGroup"></path>
        </g>
    </g>
</svg>