<?xml version="1.0" encoding="utf-8"?>
<!-- Generator: Adobe Illustrator 21.1.0, SVG Export Plug-In . SVG Version: 6.00 Build 0)  -->
<svg version="1.1" id="Layer_1" xmlns:sketch="http://www.bohemiancoding.com/sketch/ns"
	 xmlns="http://www.w3.org/2000/svg" xmlns:xlink="http://www.w3.org/1999/xlink" x="0px" y="0px" viewBox="0 0 46 63"
	 style="enable-background:new 0 0 46 63;" xml:space="preserve">
<style type="text/css">
	.st0{fill:#FFFFFF;}
</style>
<title>arrowhead_gray</title>
<description>Created with Sketch.</description>
<g id="Page-1" sketch:type="MSPage">
	<g id="Imported-Layers-2" sketch:type="MSLayerGroup">
		<path id="Fill-1" sketch:type="MSShapeGroup" class="st0" d="M24.4,0h0.4c2.2,2.4,3.2,5.3,4.9,8.1c0.5,0.9,1.3,1.6,1.8,2.5
			c0.7,1.3,0.8,2.9,1.5,4.2c0.6,1.1,1.6,2.1,2.4,3.1c2.5,3.1,4.3,6.5,6.3,10.3c0.7,1.3,1.7,2.4,2.3,3.8c0.7,1.7,0.4,3.7,0.8,5.7
			c0.3,1.4,1.1,2.5,1.3,4.1v1.2c-0.3,1-0.7,2.4-1.8,2.8c-1.1,0.4-2.4,0.2-3.5,0.5c-1.6,0.5-2.9,1.7-4.6,2.2c-1,0.3-1.8,0.3-2.8,0.6
			c0.5,2.7,2,4.8,1.8,8.3c-0.2,2.5-1.6,4.7-4.4,4.6c-1.5-0.1-3-1-4.7-0.9c-2,0.1-3.3,1.6-5.3,1.8h-3.4c-2.5-0.5-5,0.3-6.6-1.3
			c-1.3-1.3-1.9-7.8-0.3-9.3c0.4-0.4,1.1-0.4,1.6-0.6c0.2-0.8,0.5-1.7,0.2-2.6c-0.1-0.3-1.2-1.3-1.7-1.4c-0.9-0.2-1.9,0.1-2.7-0.2
			C6.5,47.1,6,46,5,45.2c-1.4-1.1-3.1-1.6-4.9-2.2c-0.1-0.2,0-0.4-0.2-0.5v-1.2c0.2-0.9,0.8-2,1.1-3.1c0.4-1.7,0.1-3.4,0.7-4.8
			c0.4-1,1.3-1.7,1.8-2.7c0.5-1,0.6-2.1,1.1-3C5.2,26.7,6.5,26,7,24.8c0.4-1,0.4-2.2,0.9-3.2c0.7-1.5,2.8-2.4,3.3-4.1
			c0.2-0.9,0-2,0.4-2.8c0.5-1,2.1-1.1,2.5-2.1c0.4-1.1-0.1-2.5,0.7-3.1c0.6-0.5,1.7-0.3,2.4-0.6c1-0.5,1.9-2.5,2.6-3.5
			c0.9-1.3,1.6-2.9,2.5-3.8C22.8,0.9,23.6,0.7,24.4,0 M21.8,4.5c-0.4,0.7-1,1.3-1.4,2c-1,1.4-1.7,3.2-3,3.8
			c-0.7,0.3-1.3,0.1-2.1,0.5c-0.3,1,0,1.8-0.3,2.7c-0.4,1.1-2.1,1.2-2.5,2.1c-0.4,0.9-0.1,2-0.4,2.9c-0.6,1.5-2.2,2.1-3,3.6
			c-0.6,1.1-0.6,2.6-1.2,3.8c-0.5,1.2-1.9,1.9-2.5,3c-0.4,0.8-0.5,1.8-1,2.8c-0.6,1.2-1.7,2.2-2,3.2C2.1,36.1,2.3,37.5,2,39
			c-0.3,1.1-1.1,2-1,3.3c1.7,0.7,3.3,1.2,4.6,2.2c1.1,0.8,1.5,1.8,2.6,2c0.8,0.2,1.7,0,2.5,0.2c0.5,0.1,0.9,0.5,1.3,0.8
			c0.6,0.4,1,0.5,1.2,1c0.4,1.1,0.1,3.5-0.6,4.2c-0.4,0.4-1.1,0.2-1.6,0.6c-1.2,1-0.4,6.7,0.3,7.5c0.7,0.9,2.9,0.9,4.4,1
			c1.8,0.1,3.5,0.3,5.2,0.1c1.7-0.2,3.3-1.5,4.6-1.7c2.2-0.4,4,1.5,6.6,0.7c2.8-0.9,2.1-6.2,1.2-8.6c-0.4-1.1-1.2-2.2-1-3.2
			c0.3-1.4,2.7-1.1,4.2-1.6c1.6-0.5,3-1.8,4.4-2.1c0.9-0.2,2.5-0.2,3.1-0.4c2.3-1.2,0.3-4.6-0.2-6.7c-0.3-1.3-0.1-3.5-0.4-4.7
			c-0.5-1.6-1.9-3-2.7-4.6c-1.8-3.4-3.2-6.2-5.3-9.1c-1-1.4-2.4-2.6-3.2-4c-0.7-1.3-0.9-2.9-1.5-4.2c-0.4-0.8-1.1-1.4-1.6-2.2
			c-1.6-2.4-2.5-5.3-4.4-7.3c-0.1,0-0.1-0.1-0.2-0.1C22.9,2.4,22.5,3.3,21.8,4.5"/>
		<path id="Fill-2" sketch:type="MSShapeGroup" class="st0" d="M24.2,4c1.2,0.2,1.7,1.7,1.2,3C23.9,7,23.8,5.3,24.2,4"/>
		<path id="Fill-3" sketch:type="MSShapeGroup" class="st0" d="M29.8,13c-1.4-0.7-3.1-0.9-3.7-1.9c-0.4-0.8,0-2,0.3-3.1h0.2
			c0.7,0.3,1.2,1,1.8,1.5C29.4,10.4,30.4,11.3,29.8,13"/>
		<path id="Fill-4" sketch:type="MSShapeGroup" class="st0" d="M32.4,32.4c0.3,1.2,2.7,0.4,3.8,0.8c0.1,1.7-0.4,3.1,0,4.4
			c0.5,1.5,2.5,1.4,2.8,3c-2.9,0.8-5.7,1.3-7.9,3.5c-1.5,1.5-2.3,3.2-5.2,3.7c-0.8,0.1-1.9,0.4-2.7,0.2c-1.6-0.4-2.1-4.1-1.4-6
			c-0.6,0.3-1.9,0.7-2.1,1.4c-0.4,1.4,1.3,2.7,0.8,4.2c-2.3,1-3.7-0.3-5.2-1.3c-0.8-0.6-1.7-1.1-2.4-1.6c-1.4-1-4.1-2.2-4.6-3.5
			c-1.2-2.9,1.6-6.2,2-8.7c0.2-0.9,0-1.8,0.3-2.6c0.2-0.5,0.8-0.9,0.9-1.3c0.2-0.6,0-1.3,0-2c0.1-0.8,0.3-1.7,0.8-2.2
			c1-1.2,2.7-1.3,3.5-2.6c0.4-0.7,0.5-1.5,0.8-2.2c0.3-0.7,0.6-1.3,1.1-1.9c0.9-1.2,2.1-1.9,3-3.1c0.9-1.1,1.3-2.8,2.4-3.3
			c0.9-0.5,0.7,0.7,1.2,1.5c0.7,1.3,2.2,1.9,2.8,3c0.5,0.9,0.6,2.1,0.9,2.7c0.4,0.8,1.8,1.4,2.3,2.2c0.8,1.2,0.4,3.6,1.1,4.8
			c0.6,0.9,1.6,1.4,2.3,2.3C35,29.4,35.8,32.3,32.4,32.4L32.4,32.4z M21.9,20c-1.3,1.9-1.1,5.8,0,8c0.7,1.3,2,1.7,1.9,3.1
			c-0.1,1.9-2.4,2.5-2.2,4.6c0.1,1,1.4,2.2,2.1,2.8c1,0.8,2.1,1.3,3.2,1.6c0.4-2.1-2-2.3-2.8-3.9c-1.1-2.1,0.8-3.1,1.1-4.7
			c0.3-2-1.2-3.2-1.8-4.8c-0.5-1.3-1-2.9-1-4.5c0-0.7,0.4-1.3-0.3-2.2H21.9L21.9,20z M15.6,36c1-1.3,1.2-3.3,2.4-4.4
			C15.5,29.2,14.1,34.7,15.6,36L15.6,36z M31.7,38c0.4-0.3,0.6-0.3,1.2-0.1c0.1-0.9,0.1-2.1-0.2-2.9C31.4,35.1,30.2,37.4,31.7,38
			L31.7,38z M14.4,36.1c-0.1,0-0.1-0.1-0.3-0.1c-0.6,1.5-2.4,2.1-2.1,4.2c0.4,0.6,1.5,0.9,2.4,0.7C15.4,40,15,37.1,14.4,36.1
			L14.4,36.1z"/>
		<path id="Fill-5" sketch:type="MSShapeGroup" class="st0" d="M29,16c0.6,0,0.9,0.8,1.4,1.3c0.4,0.5,0.8,1,0.6,1.7
			C29.5,18.9,29.3,17.4,29,16"/>
		<path id="Fill-6" sketch:type="MSShapeGroup" class="st0" d="M38,28c-1.3,0.1-2-1.5-3-2.7c-1-1.2-2.7-2.1-1.7-4.3
			c0.8,0.4,1.8,1.5,2.8,2.6C37.2,24.8,38.1,25.8,38,28"/>
		<path id="Fill-7" sketch:type="MSShapeGroup" class="st0" d="M10,24c1.5,0.7,1.2,4.8-0.5,5c-1.4,0.2-2.5-1.8-0.5-2
			C9.5,26.1,9.8,25.1,10,24"/>
		<path id="Fill-8" sketch:type="MSShapeGroup" class="st0" d="M39,30.2c-0.3,0.6-1.1,0.7-1.9,0.8c-0.4-0.6-1.2-1.2-1.1-2.2
			C36.2,26.9,38.9,28.9,39,30.2"/>
		<path id="Fill-9" sketch:type="MSShapeGroup" class="st0" d="M41.8,39c-1-0.6-2.6-1-2.7-2.1c0-0.4,0.4-0.8,0.4-1.1
			c0-1.2-1.4-1.8-1.6-3.1c0.3-0.7,1.5-0.8,2-0.6C42,32.7,42.2,36.7,41.8,39"/>
		<path id="Fill-10" sketch:type="MSShapeGroup" class="st0" d="M21.1,51c-0.4,1.1-1.8,1.4-2.9,2.1c-0.6,0.4-1.4,0.7-1.3,1.4
			c0.2,1.2,2.2,0.7,3,0.3c1.2-0.6,2.7-2.5,4.3-2.8c1.5-0.3,5.3,0.4,6,1.2c0.8,1,0.7,2.9,0.5,4.6c-0.4,0.2-0.7,0.6-1.4,0.5
			c0-0.4,0.6-0.5,0.7-1.1c0.1-0.7-0.3-1.6-0.4-2.3c-0.2-0.2-0.5-0.3-0.8-0.5c-0.8,0.5-0.9,1.9-2.1,2c-0.9,0.1-1.7-0.6-2.8-0.4
			c-1.3,0.2-1.9,1.6-3.4,1.6c-1,0-2.4-0.5-3.2-0.9c-0.8-0.4-1.9-1.4-2.8-1.4c-0.7,0-1.9,1.2-1.9,1.6c0,1.4,3.2,1.4,4.6,1.5
			c2.1,0.2,4.1,0.1,4.9,1.4c-2.1,0.3-4.3-0.6-6.6-0.8c-2-0.1-4.4,0.2-4.8-1.7c-0.1-0.7-0.1-1.6,0.4-2.3c0.8-1.4,2.5-1.8,4.6-2.4
			c0.8-0.2,1.5-0.7,2.3-0.9c1.1-0.3,1.9-0.5,2.7-0.8H21.1"/>
	</g>
</g>
</svg>
