<svg id="Layer_1" data-name="Layer 1" xmlns="http://www.w3.org/2000/svg" viewBox="0 0 44.95 45.29"><defs><style>.cls-1{fill:green;}</style></defs><title>beginner</title><path class="cls-1" d="M22.24,0C33,0,42,6.91,44.58,16.87c.22.86.69,1.9,0,2.52s-1.48-.27-2.2-.53c-4.95-1.8-9.79-2.19-14.81,0a53.08,53.08,0,0,1-13.81,4.47C8.9,24.1,4.86,22.11.87,19.78c-1-.57-.53-1.46-.4-2.19C2,9.27,9.8,1.75,18.17.48A15.09,15.09,0,0,1,22.24,0Z"/><path class="cls-1" d="M22.46,45.29c-11,0-20-7.56-22.34-18.7-.09-.44-.27-.93.16-1.19s.84.13,1.2.37a19,19,0,0,0,12.2,3.09c3.56-.29,6.84-1.58,10.14-2.87,3.73-1.46,7.2-3.7,11.52-3.38a17.86,17.86,0,0,1,8.77,3.26c1,.68.67,1.46.45,2.33A22.9,22.9,0,0,1,22.46,45.29Z"/></svg>