<svg id="Layer_1" data-name="Layer 1" xmlns="http://www.w3.org/2000/svg" viewBox="0 0 62 86"><defs><style>.cls-1,.cls-2{fill:#00d748;}.cls-1{stroke:#000;stroke-miterlimit:10;}.cls-3{fill:#000201;}</style></defs><title>elev</title><path class="cls-1" d="M32.25.5C48.82.5,61.5,13,61.5,29.56v.94c0,21.83-19.32,49-29.75,55H31.5c-10.43-6-31-33.17-31-55v-.94C.5,13,14.43.5,31,.5Z"/><path class="cls-2" d="M32.19,2.5c15.74,0,27.31,12,27.31,27.73v.9c0,20.74-17.88,46.38-27.79,52.38h-.24c-9.91-6-29-31.63-29-52.37v-.9C2.5,14.49,15.26,2.5,31,2.5Z"/><path class="cls-3" d="M20.57,37.5,31,18.47l10.43,19Z"/></svg>