<svg id="Layer_1" data-name="Layer 1" xmlns="http://www.w3.org/2000/svg" viewBox="0 0 63 87"><defs><style>.cls-1{stroke:#fff;stroke-miterlimit:10;stroke-width:2px;}.cls-2{fill:#fff;}</style></defs><title>elev</title><path class="cls-1" d="M32.75,1C49.32,1,62,13.5,62,30.06V31c0,21.83-19.32,49-29.75,55H32C21.57,80,1,52.83,1,31v-.94C1,13.5,14.93,1,31.5,1Z"/><path d="M32.69,3C48.43,3,60,15,60,30.73v.9C60,52.37,42.12,78,32.21,84H32C22.06,78,3,52.38,3,31.64v-.9C3,15,15.76,3,31.5,3Z"/><path class="cls-2" d="M21.07,38,31.5,19,41.93,38Z"/></svg>