<svg id="Layer_1" data-name="Layer 1" xmlns="http://www.w3.org/2000/svg" viewBox="0 0 46.51 46.5"><defs><style>.cls-1{fill:blue;}</style></defs><title>inter</title><path class="cls-1" d="M46.51,24.47v22H0V26c5.49.32,8.71-2.7,11-7.17a18.11,18.11,0,0,1,2.27-3.69,2.8,2.8,0,0,1,4.87.64c1,2.14,1.37,4.52,2.23,6.71a93.11,93.11,0,0,0,4.38,10.3c2,3.65,5.61,4.25,9.37,4,3.22-.26,5.28-2.2,6.46-5.13.54-1.35,1-2.72,1.61-4A5,5,0,0,1,46.51,24.47Z"/><path class="cls-1" d="M.06,0H46.48V17.89c-.53.06-1.11.16-1.69.18-3.18.13-5.6,1.45-6.92,4.45a47.71,47.71,0,0,1-2.47,5.67,4.71,4.71,0,0,1-3,2.23,4.16,4.16,0,0,1-3.25-1.84c-1-1.92-1.36-4.19-2.1-6.27-1.2-3.38-2.33-6.8-3.79-10.06-2.46-5.46-11.59-6-14.69-1-1.34,2.14-2.9,4.15-4.22,6.31-1,1.64-2.17,2.56-4.26,1.77Z"/></svg>