<svg id="Layer_1" data-name="Layer 1" xmlns="http://www.w3.org/2000/svg" viewBox="0 0 62 86"><defs><style>.cls-1,.cls-2{fill:#3f84aa;}.cls-1{stroke:#000;stroke-miterlimit:10;}.cls-3{fill:#231f20;}</style></defs><title>ski</title><path class="cls-1" d="M32.25.5C48.82.5,61.5,13,61.5,29.56v.94c0,21.83-19.32,49-29.75,55H31.5c-10.43-6-31-33.17-31-55v-.94C.5,13,14.43.5,31,.5Z"/><path class="cls-2" d="M32.19,2.5c15.74,0,27.31,12,27.31,27.73v.9c0,20.74-17.88,46.38-27.79,52.38h-.24c-9.91-6-29-31.63-29-52.37v-.9C2.5,14.49,15.26,2.5,31,2.5Z"/><ellipse class="cls-3" cx="42.62" cy="16.03" rx="3.68" ry="3.7"/><path class="cls-3" d="M19.26,51.53,7,39.2v2.15L18.42,52.84c1.31,1.42,3.56-.22,3.56-.22L20.9,51.46s-1.06.7-1.61.1ZM7,28.33H20v1H7Zm46.57-3.51L55,25.5,40.76,54.33H39.18ZM29.93,22.46,24.2,29.1a1.83,1.83,0,0,1-1.43.68,1.86,1.86,0,0,1-1.23-3.25l6.18-7.14a1.86,1.86,0,0,1,1.43-.67H38.1a2.43,2.43,0,0,1,1.68.68l5.71,5.72,4.73-4.73a1.89,1.89,0,0,1,1.23-.45,1.92,1.92,0,0,1,1.49,3.14l-5.7,5.76c-1.73,1.74-3.12.26-3.12.26l-3.5-3.52-5.47,6.34,5,5a2.84,2.84,0,0,1,.45,2.94L37.79,52.42a2.38,2.38,0,0,1-4.72-.48,2.14,2.14,0,0,1,.08-.6L35.46,41,29.77,35.5,24.87,41a3.54,3.54,0,0,1-2.89.91l-9.93,0A2.38,2.38,0,0,1,9.69,40a2.35,2.35,0,0,1,1.78-2.84,2.18,2.18,0,0,1,.6-.06l8.54,0L33.23,22.48Z"/></svg>