<svg id="Layer_1" data-name="Layer 1" xmlns="http://www.w3.org/2000/svg" viewBox="0 0 48.25 48.25"><defs><style>.cls-1{fill:#0f6cb5;stroke:#f9f4f4;stroke-miterlimit:10;stroke-width:0.25px;}.cls-2{fill:#fcfcfc;}</style></defs><title>th2</title><path class="cls-1" d="M48,40a8,8,0,0,1-8,8H8a8,8,0,0,1-8-8V8A8,8,0,0,1,8,0H40a8,8,0,0,1,8,8Z" transform="translate(0.13 0.13)"/><path id="path3417" class="cls-2" d="M26.94,40.2a1.43,1.43,0,0,1-.63-.55,24.55,24.55,0,0,1-.4-3.77l-.2-3.4-1.42-1.89a14.74,14.74,0,0,0-1.56-1.89,6.91,6.91,0,0,0-.5,1.81l-.37,1.81-2.77,3.56a30.56,30.56,0,0,1-3.25,3.77c-1,.44-2.43-.68-2.18-1.68a31.32,31.32,0,0,1,2.68-3.7L18.9,31l.43-2.21c1.07-5.47,2.45-11.77,2.73-12.46a3.25,3.25,0,0,1,.8-1.15,2.94,2.94,0,0,1,2.79-.07,19.65,19.65,0,0,1,2.41,3c1.8,2.55,1.94,2.7,3.22,3.35l1.34.68V18.4h1.19v2.1c0,2,0,2.12.5,2.49a1.26,1.26,0,0,1,.5.88,1.57,1.57,0,0,1-.5.95l-.5.46V39.81H32.62v-15l-2.07-1c-1.81-.86-2.16-1.12-2.8-2a5.33,5.33,0,0,0-.78-1s-.34,1.46-.69,3.17l-.65,3.12,1.59,2.14,1.59,2.14L28.94,34c.07,1.42.18,3.18.24,3.91.11,1.29.09,1.35-.49,1.93a1.34,1.34,0,0,1-1.76.4ZM15.1,25.12c-1.7-.72-1.9-.89-1.9-1.59a74.4,74.4,0,0,1,3.49-9.7c.22-.23.72-.29,2.12-.26,1.6,0,1.87.09,2.17.47a1.52,1.52,0,0,1,.35.7c0,.55-3.39,10.28-3.7,10.62s-.9.43-2.52-.25Zm9.78-11.34a3.27,3.27,0,1,1,4.81-2.94A3.2,3.2,0,0,1,24.88,13.78Z" transform="translate(0.13 0.13)"/></svg>