<svg id="Layer_1" data-name="Layer 1" xmlns="http://www.w3.org/2000/svg" viewBox="0 0 35.9 48.58"><defs><style>.cls-1{fill:#b22b24;stroke:#fff;stroke-miterlimit:10;stroke-width:0.5px;}.cls-2{fill:#f9f9f9;}</style></defs><title>trailhead</title><path class="cls-1" d="M17.7,0A17.54,17.54,0,0,0,0,17.4C0,32.9,17.7,48,17.7,48S35.4,32.6,35.4,17.4A17.54,17.54,0,0,0,17.7,0Z" transform="translate(0.25 0.25)"/><path id="path3417" class="cls-2" d="M20.49,31.24a1.17,1.17,0,0,1-.52-.45,20.13,20.13,0,0,1-.33-3.09l-.17-2.79-1.16-1.55A12.09,12.09,0,0,0,17,21.82a5.66,5.66,0,0,0-.41,1.48l-.3,1.48L14.06,27.7a25,25,0,0,1-2.66,3.09c-.8.36-2-.56-1.78-1.38a25.67,25.67,0,0,1,2.19-3l2.1-2.65.36-1.81c.88-4.48,2-9.65,2.24-10.22a2.67,2.67,0,0,1,.66-.94,2.41,2.41,0,0,1,2.29-.06,16.11,16.11,0,0,1,2,2.45c1.48,2.09,1.59,2.22,2.64,2.75l1.1.56V13.37h1v1.72c0,1.64,0,1.74.41,2a1,1,0,0,1,.41.72,1.29,1.29,0,0,1-.41.78l-.41.38V30.92h-1V18.59l-1.7-.81c-1.48-.71-1.77-.92-2.3-1.64a4.37,4.37,0,0,0-.64-.79s-.28,1.2-.57,2.6l-.53,2.55,1.3,1.75L22,24l.1,2.11c.06,1.16.14,2.6.2,3.21.09,1.05.08,1.11-.4,1.58a1.1,1.1,0,0,1-1.44.33Zm-9.7-12.36c-1.4-.59-1.56-.73-1.56-1.3a61,61,0,0,1,2.86-7.95c.18-.19.59-.24,1.74-.21,1.31,0,1.53.08,1.78.38a1.24,1.24,0,0,1,.28.57c0,.45-2.78,8.43-3,8.71s-.74.36-2.07-.21Zm8-9.3a2.68,2.68,0,1,1,3.94-2.41A2.62,2.62,0,0,1,18.81,9.58Z" transform="translate(0.25 0.25)"/></svg>